<svg xmlns="http://www.w3.org/2000/svg" xml:space="preserve" viewBox="0 0 32 32"><path fill="#1e1e1e" d="M29.4,4.7c1.7,1.5,2.6,3.7,2.6,6.4c0,1.6-0.3,3-0.9,4.4c-0.6,1.4-1.6,2.5-3,3.3c-1.4,0.9-3.2,1.3-5.3,1.3h-3.9 v9.5h-4.4V2.4h7.7C25.2,2.4,27.6,3.2,29.4,4.7z M25.6,15.2c0.7-0.5,1.3-1.1,1.6-1.9c0.3-0.7,0.5-1.4,0.5-2.1c0-1.1-0.4-2.2-1.1-3.2 c-0.7-1-2-1.5-3.7-1.5h-4V16h3.9C23.9,16,24.9,15.7,25.6,15.2z"/><path fill="#c43333" d="M4.2,11.3c0,2.6,2.1,4.7,4.7,4.7c0.8,0,1.5-0.2,2.2-0.5v14.2H6.6l0,0l-3.5,0v-1.9h2.3v-1.9H3.2v-2h3.5v-4 c-3.8-1-6.6-4.4-6.6-8.6c0-4.9,4-8.8,8.8-8.8c0.8,0,1.5,0.1,2.2,0.3v4.4c-0.7-0.3-1.4-0.5-2.2-0.5C6.3,6.6,4.2,8.7,4.2,11.3z"/></svg>